<svg width="2500" height="2500" viewBox="0 0 2500 2500" fill="none" xmlns="http://www.w3.org/2000/svg">
<g clip-path="url(#clip0_731_2)">
<mask id="mask0_731_2" style="mask-type:luminance" maskUnits="userSpaceOnUse" x="0" y="0" width="2500" height="2500">
<path d="M2500 0H0V2500H2500V0Z" fill="white"/>
</mask>
<g mask="url(#mask0_731_2)">
<path d="M520.6 1188.9C520.6 1131.2 568 1083.8 625.6 1083.8H802.7C860.4 1083.8 909.8 1131.2 909.8 1191V1858.9C930.4 1852.7 955.1 1846.5 984 1840.3C1023.1 1830 1052 1795 1052 1753.7V925C1052 867.3 1099.4 817.799 1159.1 817.799H1336.2C1393.9 817.799 1443.3 865.2 1443.3 925V1694C1443.3 1694 1486.6 1675.4 1529.8 1656.9C1562.8 1642.5 1583.4 1611.6 1583.4 1574.4V657.099C1583.4 599.399 1630.8 549.9 1688.5 549.9H1865.6C1923.3 549.9 1970.7 597.299 1970.7 657.099V1413.7C2123.1 1302.4 2279.7 1168.4 2403.3 1007.6C2440.4 960.199 2450.7 898.299 2430.1 840.599C2203.5 189.199 1490.9 -157.2 840 69.5996C189.1 296.4 -156.9 1009.6 69.5997 1661.1C94.2997 1735.3 127.3 1805.4 166.4 1873.4C197.3 1927 255 1957.9 316.8 1951.7C349.8 1949.6 391 1945.5 442.4 1939.3C487.7 1935.2 520.7 1896 520.7 1850.6L520.6 1188.9Z" fill="white"/>
<path d="M516.4 2260.9C1074.6 2667 1855.3 2543.3 2261 1984.7C2415.5 1770.3 2499.9 1512.6 2499.9 1248.8C2499.9 1219.9 2497.8 1191.1 2495.8 1162.2C2040.7 1844.5 1198.2 2164 516.4 2260.9Z" fill="white"/>
</g>
</g>
<defs>
<clipPath id="clip0_731_2">
<rect width="2500" height="2500" fill="white"/>
</clipPath>
</defs>
</svg>
